<svg xmlns="http://www.w3.org/2000/svg" height="464pt" version="1.1" viewBox="-40 0 464 464" width="464pt">
<g id="surface1">
<path d="M 64 0 L 64 280 L 0 280 L 192 464 L 384 280 L 320 280 L 320 0 Z M 200 32 Z M 168 32 Z M 88 32 Z M 120 32 Z M 192 184 C 214.089844 184 232 201.910156 232 224 C 232 246.089844 214.089844 264 192 264 C 169.910156 264 152 246.089844 152 224 C 152 246.089844 169.910156 264 192 264 C 214.089844 264 232 246.089844 232 224 C 232 201.910156 214.089844 184 192 184 C 169.910156 184 152 166.089844 152 144 C 152 121.910156 169.910156 104 192 104 C 214.089844 104 232 121.910156 232 144 C 232 121.910156 214.089844 104 192 104 C 169.910156 104 152 121.910156 152 144 C 152 166.089844 169.910156 184 192 184 Z M 216 32 Z M 248 32 Z M 280 32 Z M 280 32 " style=" stroke:none;fill-rule:nonzero;fill:rgb(100%,18.823529%,31.764706%);fill-opacity:1;" />
<path d="M 192 192 C 165.492188 192 144 170.507812 144 144 C 144 117.492188 165.492188 96 192 96 C 218.507812 96 240 117.492188 240 144 L 224 144 C 224 126.328125 209.671875 112 192 112 C 174.328125 112 160 126.328125 160 144 C 160 161.671875 174.328125 176 192 176 Z M 192 192 " style=" stroke:none;fill-rule:nonzero;fill:rgb(94.509804%,94.901961%,94.901961%);fill-opacity:1;" />
<path d="M 192 272 C 165.5 271.972656 144.027344 250.5 144 224 L 160 224 C 160 241.671875 174.328125 256 192 256 C 209.671875 256 224 241.671875 224 224 C 224 206.328125 209.671875 192 192 192 L 192 176 C 218.507812 176 240 197.492188 240 224 C 240 250.507812 218.507812 272 192 272 Z M 192 272 " style=" stroke:none;fill-rule:nonzero;fill:rgb(94.509804%,94.901961%,94.901961%);fill-opacity:1;" />
<path d="M 184 80 L 200 80 L 200 104 L 184 104 Z M 184 80 " style=" stroke:none;fill-rule:nonzero;fill:rgb(94.509804%,94.901961%,94.901961%);fill-opacity:1;" />
<path d="M 184 264 L 200 264 L 200 288 L 184 288 Z M 184 264 " style=" stroke:none;fill-rule:nonzero;fill:rgb(94.509804%,94.901961%,94.901961%);fill-opacity:1;" />
<path d="M 88 24 L 104 24 L 104 40 L 88 40 Z M 88 24 " style=" stroke:none;fill-rule:nonzero;fill:rgb(94.509804%,94.901961%,94.901961%);fill-opacity:1;" />
<path d="M 120 24 L 136 24 L 136 40 L 120 40 Z M 120 24 " style=" stroke:none;fill-rule:nonzero;fill:rgb(94.509804%,94.901961%,94.901961%);fill-opacity:1;" />
<path d="M 152 24 L 168 24 L 168 40 L 152 40 Z M 152 24 " style=" stroke:none;fill-rule:nonzero;fill:rgb(94.509804%,94.901961%,94.901961%);fill-opacity:1;" />
<path d="M 184 24 L 200 24 L 200 40 L 184 40 Z M 184 24 " style=" stroke:none;fill-rule:nonzero;fill:rgb(94.509804%,94.901961%,94.901961%);fill-opacity:1;" />
<path d="M 184 24 L 200 24 L 200 40 L 184 40 Z M 184 24 " style=" stroke:none;fill-rule:nonzero;fill:rgb(94.509804%,94.901961%,94.901961%);fill-opacity:1;" />
<path d="M 216 24 L 232 24 L 232 40 L 216 40 Z M 216 24 " style=" stroke:none;fill-rule:nonzero;fill:rgb(94.509804%,94.901961%,94.901961%);fill-opacity:1;" />
<path d="M 248 24 L 264 24 L 264 40 L 248 40 Z M 248 24 " style=" stroke:none;fill-rule:nonzero;fill:rgb(94.509804%,94.901961%,94.901961%);fill-opacity:1;" />
<path d="M 280 24 L 296 24 L 296 40 L 280 40 Z M 280 24 " style=" stroke:none;fill-rule:nonzero;fill:rgb(94.509804%,94.901961%,94.901961%);fill-opacity:1;" />
</g>
</svg>