<?xml version="1.0" encoding="utf-8"?>
<!-- Generator: Adobe Illustrator 21.0.0, SVG Export Plug-In . SVG Version: 6.00 Build 0)  -->
<svg version="1.1" id="Capa_1" xmlns="http://www.w3.org/2000/svg" xmlns:xlink="http://www.w3.org/1999/xlink" x="0px" y="0px"
	 viewBox="0 0 589.5 303.5" style="enable-background:new 0 0 589.5 303.5;" xml:space="preserve">
<style type="text/css">
	.st0{enable-background:new    ;}
	.st1{font-family:'ArialNarrow-Bold';}
	.st2{font-size:114px;}
</style>
<g>
	<polygon points="266.7,103.7 303.5,140.5 303.5,103.7 	"/>
	<path d="M210.1,103.7h-47.9l60.8,60.8h-56.6l-60.8-60.8H54.7l60.8,60.8H59L6.4,112c-0.6,1.5-1,3.2-1,5v165.1
		c0,9.2,7.5,16.7,16.7,16.7h264.7c9.2,0,16.7-7.5,16.7-16.7V164.6H271L210.1,103.7z"/>
	<polygon points="253.3,4.6 202.9,11.9 151.4,80.8 201.9,73.5 	"/>
	<polygon points="146.9,20.1 99.5,26.9 48,95.8 95.5,89 	"/>
	<path d="M300,45.9L295.5,15l-37.7,50.4l30.9-4.5C296,59.9,301,53.2,300,45.9z"/>
	<path d="M43.5,35l-32.1,4.7c-7.3,1.1-12.3,7.8-11.2,15l4.1,28.2l0.6,3.9L18.2,69L43.5,35z"/>
</g>
<text transform="matrix(1.0388 0 0 1 307.8066 185.5217)" class="st0"><tspan x="0" y="0" class="st1 st2">FILM</tspan><tspan x="0" y="110" class="st1 st2">BASE</tspan></text>
</svg>
