<?xml version="1.0" encoding="utf-8"?>
<!-- Generator: Adobe Illustrator 21.0.0, SVG Export Plug-In . SVG Version: 6.00 Build 0)  -->
<svg version="1.1" id="Layer_1" xmlns="http://www.w3.org/2000/svg" xmlns:xlink="http://www.w3.org/1999/xlink" x="0px" y="0px"
	 viewBox="0 0 125 63" style="enable-background:new 0 0 125 63;" xml:space="preserve">
<style type="text/css">
	.st0{fill:#620053;}
	.st1{fill:none;stroke:#000000;stroke-width:0.5;stroke-miterlimit:10;}
	.st2{fill:none;stroke:#620053;stroke-width:0.5;stroke-miterlimit:10;}
	.st3{fill:#C400A6;}
	.st4{fill:none;stroke:#C400A6;stroke-width:0.5;stroke-miterlimit:10;}
	.st5{fill:none;stroke:#000000;stroke-width:0.5;stroke-linecap:round;stroke-linejoin:round;}
	.st6{fill:#E6E6E6;}
</style>
<g>
	<g>
		<g id="XMLID_1_">
			<g>
				<path class="st0" d="M59.3,8.5l29.3,39.2H15.1l1.5-1.4l-4-5.2l-3.5,3.1l2.7,3.5H7.9H1.3L53.7,1l1.7,2.3l-2.1,1.5l-3.5,3.1l4,5.2
					l3.5-3.1L59.3,8.5z M51.5,15.2l-4-5.2l-3.5,3.1l4,5.2L51.5,15.2z M45.7,20.4l-4-5.2l-3.5,3.1l4,5.2L45.7,20.4z M39.9,25.6
					l-4-5.2l-3.5,3.1l4,5.2L39.9,25.6z M34,30.8l-4-5.2l-3.5,3.1l4,5.2L34,30.8z M28.2,36l-4-5.2l-3.5,3.1l4,5.2L28.2,36z
					 M22.4,41.2l-4-5.2L15,39l4,5.2L22.4,41.2z"/>
				<polygon class="st0" points="59.3,8.5 57.3,10 53.3,4.8 55.4,3.3 				"/>
			</g>
			<g>
				<polyline class="st1" points="7.9,47.7 11.8,47.7 15.1,47.7 88.6,47.7 59.3,8.5 55.4,3.3 53.7,1 1.3,47.7 7.9,47.7 				"/>
				<polygon class="st2" points="53.3,4.8 49.9,7.9 53.8,13.1 57.3,10 				"/>
				<polygon class="st2" points="44.1,13.1 48,18.3 51.5,15.2 47.5,10 				"/>
				<polygon class="st2" points="38.2,18.3 42.2,23.5 45.7,20.4 41.7,15.2 				"/>
				<polygon class="st2" points="32.4,23.5 36.4,28.7 39.9,25.6 35.9,20.4 				"/>
				<polygon class="st2" points="26.6,28.6 30.6,33.9 34,30.8 30.1,25.5 				"/>
				<polygon class="st2" points="20.8,33.8 24.8,39.1 28.2,36 24.3,30.7 				"/>
				<polygon class="st2" points="15,39 18.9,44.2 22.4,41.2 18.4,35.9 				"/>
				<polyline class="st2" points="11.8,47.7 9.1,44.2 12.6,41.1 16.6,46.3 15.1,47.7 				"/>
			</g>
		</g>
	</g>
	<g id="XMLID_2_">
		<g>
			<path class="st3" d="M94.3,8.5c9.8,13.1,19.5,26.1,29.3,39.2c-11.1,0-22.3,0-33.4,0L74.1,26.2l-3.9-5.3l-1.6-2.1
				c4.8-4.3,9.7-8.6,14.5-12.9l1.7,1.9l4,5.2l3.5-3.1L94.3,8.5z M86.4,15.2l-4-5.2L79,13.1l4,5.2L86.4,15.2z M80.6,20.4l-4-5.2
				l-3.5,3.1l4,5.2L80.6,20.4z"/>
			<path class="st3" d="M94.3,8.5l-2,1.5l-4-5.2l2.1-1.5C91.6,5,92.9,6.8,94.3,8.5z"/>
			<path class="st3" d="M88.6,1c0.6,0.8,1.1,1.5,1.7,2.3l-2.1,1.5l-3.5,3.1L83.1,6C84.9,4.3,86.8,2.7,88.6,1z"/>
		</g>
		<g>
			<polygon class="st4" points="84.8,7.9 88.8,13.1 92.3,10 88.3,4.8 			"/>
			<polygon class="st4" points="79,13.1 82.9,18.3 86.4,15.2 82.4,10 			"/>
			<polygon class="st4" points="73.2,18.3 77.1,23.5 80.6,20.4 76.6,15.2 			"/>
			<path class="st5" d="M70.2,20.9l-1.6-2.1c4.8-4.3,9.7-8.6,14.5-12.9c1.8-1.7,3.7-3.3,5.6-5c0.6,0.8,1.1,1.5,1.7,2.3
				c1.3,1.8,2.6,3.5,3.9,5.3c9.8,13.1,19.5,26.1,29.3,39.2c-11.1,0-22.3,0-33.4,0L74.1,26.2"/>
			<line class="st5" x1="70.2" y1="20.9" x2="74.1" y2="26.2"/>
		</g>
	</g>
</g>
<g>
	<path class="st6" d="M19.5,52.1h-5v3.6h4.6v1.7h-4.6v5h-2.2V50.4h7.2V52.1z"/>
	<path class="st6" d="M26.1,62.3h-2.3V50.4h2.3V62.3z"/>
	<path class="st6" d="M38.7,62.3h-7.4V50.4h2.2v10.2h5.2V62.3z"/>
	<path class="st6" d="M57,62.3h-2.2v-7.7c0-0.6,0-1.4,0.1-2.3h0c-0.1,0.5-0.3,0.9-0.4,1.1l-4,8.9H49l-4-8.8
		c-0.1-0.3-0.2-0.7-0.4-1.2h0c0.1,0.5,0.1,1.3,0.1,2.3v7.7h-2.1V50.4h3.1l3.5,7.9c0.3,0.6,0.4,1.1,0.5,1.4h0
		c0.2-0.6,0.4-1.1,0.6-1.4l3.6-7.9h3V62.3z"/>
	<path class="st6" d="M67.5,62.3V50.4h4.3c1.3,0,2.3,0.3,3.1,0.8c0.8,0.5,1.1,1.2,1.1,2c0,0.7-0.2,1.3-0.6,1.8s-1,0.9-1.8,1.1v0
		c0.9,0.1,1.7,0.4,2.2,0.9s0.8,1.2,0.8,2c0,1-0.5,1.8-1.4,2.5c-0.9,0.6-2,0.9-3.4,0.9H67.5z M69.7,52v3.4h1.4c0.8,0,1.4-0.2,1.8-0.5
		c0.4-0.3,0.7-0.8,0.7-1.4c0-1-0.8-1.5-2.3-1.5H69.7z M69.7,56.9v3.8h1.9c0.8,0,1.5-0.2,1.9-0.5c0.5-0.3,0.7-0.8,0.7-1.4
		c0-1.2-1-1.9-2.9-1.9H69.7z"/>
	<path class="st6" d="M92,62.3h-2.4l-1.2-3h-5.3l-1.2,3h-2.4l5-11.9H87L92,62.3z M87.8,57.6l-1.9-4.7c-0.1-0.2-0.1-0.4-0.2-0.7h0
		c-0.1,0.3-0.1,0.6-0.2,0.7l-1.8,4.7H87.8z"/>
	<path class="st6" d="M95.2,61.8v-2c0.2,0.2,0.5,0.3,0.7,0.4s0.6,0.2,0.9,0.3c0.3,0.1,0.6,0.2,1,0.2s0.6,0.1,0.9,0.1
		c0.9,0,1.6-0.1,2.1-0.4c0.5-0.3,0.7-0.7,0.7-1.2c0-0.3-0.1-0.5-0.2-0.7c-0.2-0.2-0.4-0.4-0.6-0.6c-0.3-0.2-0.6-0.3-1-0.5
		c-0.4-0.2-0.8-0.3-1.2-0.5c-0.5-0.2-0.9-0.4-1.3-0.7c-0.4-0.2-0.7-0.5-1-0.7s-0.5-0.6-0.7-0.9c-0.2-0.3-0.2-0.7-0.2-1.2
		c0-0.6,0.1-1,0.4-1.5s0.7-0.8,1.1-1s1-0.5,1.6-0.6c0.6-0.1,1.2-0.2,1.8-0.2c1.4,0,2.4,0.1,3.1,0.4v2c-0.8-0.5-1.7-0.7-2.9-0.7
		c-0.3,0-0.7,0-1,0.1c-0.3,0.1-0.6,0.1-0.9,0.3c-0.3,0.1-0.5,0.3-0.6,0.5c-0.2,0.2-0.2,0.4-0.2,0.7c0,0.3,0.1,0.5,0.2,0.7
		s0.3,0.4,0.5,0.5s0.5,0.3,0.9,0.5c0.3,0.2,0.7,0.3,1.2,0.5c0.5,0.2,0.9,0.4,1.3,0.7c0.4,0.2,0.8,0.5,1.1,0.8c0.3,0.3,0.6,0.6,0.8,1
		c0.2,0.4,0.3,0.8,0.3,1.2c0,0.6-0.1,1.1-0.4,1.5c-0.3,0.4-0.6,0.8-1.1,1c-0.5,0.3-1,0.4-1.6,0.6c-0.6,0.1-1.2,0.2-1.9,0.2
		c-0.2,0-0.5,0-0.8,0s-0.7-0.1-1-0.1c-0.3-0.1-0.7-0.1-1-0.2C95.6,62,95.3,61.9,95.2,61.8z"/>
	<path class="st6" d="M115.7,62.3h-7.5V50.4h7.2v1.7h-5v3.4h4.6v1.7h-4.6v3.5h5.3V62.3z"/>
</g>
<line class="st1" x1="1.3" y1="47.7" x2="19.4" y2="47.7"/>
</svg>
